<svg width="422" height="404" viewBox="0 0 422 404" fill="none" xmlns="http://www.w3.org/2000/svg">
    <path
        d="M255.82 64.64C271.293 67.6067 286.75 70.63 302.19 73.71C302.55 73.7833 302.85 73.9167 303.09 74.11C304.01 74.8367 303.89 75.2167 302.73 75.25C302.47 75.2567 302.153 75.2333 301.78 75.18C264.413 69.44 226.783 63.5 188.89 57.36C188.31 57.2667 188.28 57.0867 188.8 56.82C192.98 54.6733 197.39 54.0033 202.03 54.81C219.99 57.9367 237.92 61.2133 255.82 64.64Z"
        fill="url(#paint0_diamond_1_2)" />
    <path
        d="M255.3 72.25C270.687 74.79 286.087 77.2633 301.5 79.67C301.658 79.6955 301.808 79.7532 301.941 79.8393C302.073 79.9255 302.185 80.0381 302.27 80.17C306.997 87.5233 311.567 94.97 315.98 102.51C318.98 107.65 321.517 113.013 323.59 118.6C324.217 120.3 324.05 120.42 323.09 118.96C315.677 107.667 308.397 96.4233 301.25 85.23C301.143 85.0606 301.001 84.9158 300.831 84.8054C300.662 84.695 300.471 84.6216 300.27 84.59L173.22 63.04C172.58 62.9333 172.553 62.74 173.14 62.46C175.08 61.54 177.08 60.87 179.14 60.45C180.873 60.09 182.943 60.1167 185.35 60.53C208.657 64.49 231.973 68.3967 255.3 72.25Z"
        fill="url(#paint1_diamond_1_2)" />
    <path
        d="M255.31 81.69C269.383 84.0567 283.72 86.5433 298.32 89.15C298.785 89.2321 299.228 89.4073 299.623 89.665C300.018 89.9228 300.358 90.2578 300.62 90.65C311.913 107.483 323.143 124.58 334.31 141.94C336.797 145.793 338.183 149.563 338.47 153.25C338.497 153.59 338.413 153.62 338.22 153.34L299.16 95.84C298.995 95.596 298.783 95.3872 298.536 95.2258C298.289 95.0644 298.011 94.9536 297.72 94.9L155.91 69.12C155.45 69.0333 155.423 68.8733 155.83 68.64C160.217 66.14 164.76 65.32 169.46 66.18C216.307 74.7733 244.923 79.9433 255.31 81.69Z"
        fill="url(#paint2_diamond_1_2)" />
    <path
        d="M254.85 92.01C268.21 94.63 281.77 97.1567 295.53 99.59C296.703 99.8033 297.637 100.397 298.33 101.37C311.517 119.97 324.73 138.813 337.97 157.9C338.983 159.367 339.7 160.673 340.12 161.82C340.693 163.38 341.027 164.853 341.12 166.24C341.207 167.5 340.88 167.617 340.14 166.59L296.71 106.64C296.408 106.222 295.957 105.936 295.45 105.84L138.4 75.23C137.687 75.09 137.653 74.8533 138.3 74.52C142.6 72.2867 146.9 71.6033 151.2 72.47C164.967 75.2567 178.76 77.8833 192.58 80.35C213.367 84.0567 234.123 87.9433 254.85 92.01Z"
        fill="url(#paint3_diamond_1_2)" />
    <path
        d="M255.83 103.59C266.757 105.797 277.667 108.08 288.56 110.44C290.34 110.827 291.77 111.157 292.85 111.43C294.25 111.79 295.43 112.543 296.39 113.69C297.43 114.93 298.737 116.597 300.31 118.69C313.57 136.323 326.803 153.98 340.01 171.66C341.17 173.207 341.933 174.577 342.3 175.77C342.74 177.217 343.003 178.793 343.09 180.5C343.123 181.18 342.93 181.253 342.51 180.72C326.537 160.52 310.763 140.383 295.19 120.31C294.243 119.09 292.99 118.227 291.43 117.72C291.323 117.68 289.87 117.373 287.07 116.8C249.07 109.047 211.117 101.087 173.21 92.92C167.357 91.66 160.827 90.3133 153.62 88.88C142.447 86.66 131.237 84.3467 119.99 81.94C118.663 81.66 118.623 81.2867 119.87 80.82L126.93 78.21C127.348 78.0534 127.848 78.0256 128.37 78.13C171.083 86.5767 213.57 95.0633 255.83 103.59Z"
        fill="url(#paint4_diamond_1_2)" />
    <path
        d="M255.56 116.45C266.193 118.77 276.84 121.037 287.5 123.25C290.293 123.83 292.763 125.433 294.91 128.06C310.357 146.953 325.83 165.823 341.33 184.67C343.777 187.643 345.107 191.097 345.32 195.03C345.34 195.45 345.213 195.5 344.94 195.18L291.92 133.3C291.261 132.523 290.407 131.954 289.46 131.66C287.407 131.013 285.28 130.467 283.08 130.02C279.387 129.267 277.507 128.88 277.44 128.86C218.353 115.473 159.163 101.99 99.87 88.41C99.09 88.23 99.0767 88.0067 99.83 87.74L108.34 84.73C108.641 84.6191 108.974 84.5983 109.3 84.67C158.06 95.2367 206.813 105.83 255.56 116.45Z"
        fill="url(#paint5_diamond_1_2)" />
    <path
        d="M255.6 130.52C265.853 132.92 276.31 135.447 286.97 138.1C288.423 138.46 289.65 139.197 290.65 140.31C308.463 160.077 326.277 180.057 344.09 200.25C345.417 201.757 346.26 203.107 346.62 204.3C347.047 205.733 347.257 207.353 347.25 209.16C347.243 209.673 347.063 209.743 346.71 209.37C329.137 190.89 311.823 172.583 294.77 154.45C294.717 154.397 294.107 153.703 292.94 152.37C290.58 149.683 287.58 147.663 283.94 146.31C278.373 144.25 273.11 142.647 268.15 141.5C264.777 140.72 263.06 140.323 263 140.31C210.033 127.303 156.847 114.403 103.44 101.61C102.638 101.423 101.836 101.497 101.17 101.82L93.17 105.7C92.2367 106.153 91.9367 105.897 92.27 104.93C92.9433 103.017 93.5967 101.08 94.23 99.12C94.6833 97.72 95.34 96.69 96.2 96.03C97.3533 95.1367 98.5567 94.6467 99.81 94.56C101.23 94.4667 103.54 94.7967 106.74 95.55C156.353 107.237 205.973 118.893 255.6 130.52Z"
        fill="url(#paint6_diamond_1_2)" />
    <path
        d="M255.53 147.28C264.417 150.473 274.76 154.443 286.56 159.19C288.887 160.123 291.037 161.22 293.01 162.48C294.55 163.46 296.377 165 298.49 167.1C312.657 181.18 326.78 195.303 340.86 209.47C344.893 213.53 346.937 215.59 346.99 215.65C348.77 218.07 349.69 220.94 349.75 224.26C349.757 224.66 349.613 224.723 349.32 224.45C332.993 209.097 316.61 193.813 300.17 178.6C298.43 177 296.577 175.773 294.61 174.92C292.43 173.973 289.643 172.833 286.25 171.5C261.163 161.627 245.85 155.523 240.31 153.19C231.917 149.643 224.1 146.913 216.86 145C183.407 136.153 149.937 127.38 116.45 118.68C116.39 118.667 115.153 118.273 112.74 117.5C111.167 117 109.56 116.723 107.92 116.67C106.6 116.623 105.03 116.91 103.21 117.53C97.95 119.323 92.5433 121.117 86.99 122.91C86.6567 123.023 86.5433 122.913 86.65 122.58L89.14 115.04C89.1905 114.889 89.2737 114.751 89.3841 114.633C89.4945 114.516 89.6294 114.423 89.78 114.36L104.06 108.44C104.527 108.245 105.057 108.21 105.57 108.34C113.517 110.253 121.213 112.19 128.66 114.15C162.633 123.07 196.687 131.65 230.82 139.89C239.193 141.91 247.43 144.373 255.53 147.28Z"
        fill="url(#paint7_diamond_1_2)" />
    <path
        d="M255.83 170.91C270.87 176.863 285.463 182.653 299.61 188.28C301.283 188.947 302.797 189.88 304.15 191.08C318.99 204.18 333.767 217.077 348.48 229.77C351.267 232.177 352.46 235.253 352.06 239C352.056 239.055 352.037 239.107 352.006 239.152C351.975 239.198 351.932 239.234 351.882 239.258C351.831 239.282 351.775 239.293 351.719 239.29C351.663 239.287 351.608 239.27 351.56 239.24C349.593 238.047 347.74 236.703 346 235.21C343.413 232.983 342.083 231.843 342.01 231.79C330.917 222.877 319.86 213.917 308.84 204.91C307.42 203.75 305.857 202.83 304.15 202.15C265.21 186.717 226.26 171.307 187.3 155.92C181.067 153.46 174.773 151.283 168.42 149.39C152.213 144.55 135.99 139.753 119.75 135C115.363 133.713 111.16 133.447 107.14 134.2C99.12 135.7 90.9867 137.063 82.74 138.29C82.6025 138.311 82.4622 138.295 82.3323 138.246C82.2023 138.197 82.0869 138.115 81.9969 138.008C81.907 137.901 81.8454 137.772 81.8179 137.635C81.7905 137.497 81.7981 137.354 81.84 137.22L83.69 131.42C83.7577 131.211 83.8746 131.023 84.0301 130.873C84.1855 130.722 84.3746 130.615 84.58 130.56C91.1 128.82 97.66 127.233 104.26 125.8C104.353 125.78 105.44 125.443 107.52 124.79C109.327 124.23 111.15 124.253 112.99 124.86C114.29 125.287 114.977 125.51 115.05 125.53C140.643 132.417 166.213 139.397 191.76 146.47C198.107 148.23 204.333 150.34 210.44 152.8C225.553 158.873 240.683 164.91 255.83 170.91Z"
        fill="url(#paint8_diamond_1_2)" />
    <path
        d="M255.59 193.86C272.237 200.38 288.873 206.927 305.5 213.5C309.447 215.06 312.87 216.963 315.77 219.21C326.903 227.83 338.17 236.27 349.57 244.53C351.61 246.01 352.877 247.177 353.37 248.03C354.27 249.57 354.487 251.397 354.02 253.51C353.983 253.667 353.91 253.812 353.805 253.934C353.7 254.056 353.568 254.15 353.419 254.209C353.27 254.269 353.11 254.29 352.951 254.273C352.793 254.256 352.642 254.2 352.51 254.11C341.603 246.777 330.747 239.427 319.94 232.06C315.38 228.953 309.33 225.997 301.79 223.19C297.203 221.477 294.897 220.617 294.87 220.61C239.063 199.037 183.26 177.45 127.46 155.85C126.06 155.303 124.697 154.843 123.37 154.47C122.437 154.203 121.507 153.943 120.58 153.69C119.66 153.437 118.717 153.3 117.75 153.28C104.57 153.007 91.2167 152.83 77.69 152.75C77.6203 152.749 77.5512 152.733 77.4883 152.705C77.4254 152.676 77.3705 152.635 77.3278 152.584C77.2851 152.534 77.2558 152.475 77.2423 152.414C77.2288 152.352 77.2315 152.289 77.25 152.23L79.09 146.26C79.161 146.03 79.3143 145.825 79.53 145.672C79.7458 145.519 80.014 145.424 80.3 145.4C91.16 144.56 101.373 143.823 110.94 143.19C112.933 143.057 114.56 142.977 115.82 142.95C117.233 142.923 118.827 143.157 120.6 143.65C136.813 148.19 154.883 154.37 174.81 162.19C201.737 172.75 228.663 183.307 255.59 193.86Z"
        fill="url(#paint9_diamond_1_2)" />
    <path
        d="M255.85 216.09C275.303 223.563 294.75 231.05 314.19 238.55C317.037 239.65 319.74 241.017 322.3 242.65C325.34 244.59 326.877 245.57 326.91 245.59C334.47 250.103 342.04 254.68 349.62 259.32C349.658 259.344 349.691 259.374 349.718 259.411C349.744 259.447 349.763 259.488 349.773 259.532C349.783 259.576 349.785 259.621 349.777 259.665C349.77 259.71 349.754 259.752 349.73 259.79L346.6 264.51C346.471 264.704 346.272 264.842 346.043 264.898C345.814 264.953 345.57 264.922 345.36 264.81C340.433 262.203 335.547 259.61 330.7 257.03C324.54 253.75 318.187 250.913 311.64 248.52C307.587 247.047 305.543 246.303 305.51 246.29C232.343 218.643 171.673 195.463 123.5 176.75C118.893 174.963 114.757 173.72 111.09 173.02C98.57 170.647 86.0567 168.233 73.55 165.78C73.4129 165.756 73.2894 165.682 73.2028 165.571C73.1163 165.461 73.0726 165.321 73.08 165.18C73.1733 163.14 73.7467 161.24 74.8 159.48C74.8741 159.355 74.9844 159.255 75.1175 159.191C75.2506 159.127 75.4008 159.103 75.55 159.12C96.2167 161.36 109.533 162.737 115.5 163.25C118.16 163.477 120.427 163.993 122.3 164.8C123.527 165.327 124.173 165.603 124.24 165.63C168.12 182.417 211.99 199.237 255.85 216.09Z"
        fill="url(#paint10_diamond_1_2)" />
    <path
        d="M255.37 237.29C278.91 246.197 302.423 255.187 325.91 264.26C328.27 265.173 330.787 266.26 333.46 267.52C335.88 268.66 338.377 269.803 340.95 270.95C341.054 270.998 341.147 271.068 341.221 271.155C341.295 271.242 341.349 271.344 341.379 271.453C341.409 271.562 341.413 271.676 341.393 271.787C341.372 271.897 341.327 272 341.26 272.09L336.74 278.29C336.654 278.405 336.533 278.489 336.394 278.528C336.255 278.568 336.106 278.562 335.97 278.51L72.65 179.24C72.4984 179.181 72.364 179.09 72.2578 178.975C72.1517 178.861 72.0771 178.725 72.04 178.58C71.6667 177.16 71.6433 175.277 71.97 172.93C71.981 172.844 72.0105 172.761 72.0565 172.688C72.1025 172.614 72.164 172.551 72.2369 172.503C72.3097 172.455 72.3923 172.422 72.479 172.408C72.5658 172.394 72.6548 172.398 72.74 172.42C79.42 174.187 85.6833 175.85 91.53 177.41C105.217 181.05 118.657 185.427 131.85 190.54C141.683 194.353 146.637 196.273 146.71 196.3C182.943 209.927 219.163 223.59 255.37 237.29Z"
        fill="url(#paint11_diamond_1_2)" />
    <path
        d="M249.57 255.93C276.137 265.843 302.88 275.853 329.8 285.96C330.167 286.093 330.183 286.27 329.85 286.49L321.38 292.09C321.175 292.224 320.947 292.31 320.714 292.341C320.482 292.372 320.251 292.348 320.04 292.27C252.107 267.303 184.31 242.18 116.65 216.9C112.17 215.227 107.923 213.273 103.91 211.04C93.0833 205.02 82.36 198.823 71.74 192.45C71.6029 192.368 71.4894 192.254 71.4105 192.121C71.3317 191.988 71.2901 191.84 71.29 191.69L71.27 186.66C71.2692 186.527 71.3028 186.396 71.3678 186.279C71.4328 186.163 71.5271 186.064 71.6418 185.994C71.7566 185.923 71.8881 185.882 72.0241 185.874C72.1602 185.866 72.2963 185.893 72.42 185.95C81.36 190.183 90.45 194.47 99.69 198.81C108.357 202.883 115.667 206.03 121.62 208.25C164.273 224.13 206.923 240.023 249.57 255.93Z"
        fill="url(#paint12_diamond_1_2)" />
    <path
        d="M196.08 255.9C234.34 269.887 272.523 284.017 310.63 298.29C310.687 298.311 310.738 298.347 310.778 298.394C310.818 298.441 310.845 298.497 310.857 298.557C310.869 298.617 310.865 298.679 310.847 298.737C310.828 298.796 310.795 298.848 310.75 298.89C309.563 299.977 308.34 300.957 307.08 301.83C304.813 303.39 303.613 304.2 303.48 304.26C302.26 304.813 300.947 304.78 299.54 304.16C298.513 303.7 297.97 303.46 297.91 303.44C214.543 272.84 151.573 249.86 109 234.5C106.693 233.667 104.833 232.7 103.42 231.6C92.8867 223.373 82.2533 215.113 71.52 206.82C71.2806 206.637 71.0867 206.4 70.9532 206.128C70.8196 205.855 70.7501 205.555 70.75 205.25V200.07C70.75 199.303 71.0667 199.137 71.7 199.57C82.4533 206.903 93.2933 214.113 104.22 221.2C106.767 222.853 109.483 224.21 112.37 225.27C140.27 235.49 168.173 245.7 196.08 255.9Z"
        fill="url(#paint13_diamond_1_2)" />
    <path
        d="M142.07 255.93C192.177 274.03 242.41 292.253 292.77 310.6C293.063 310.707 293.083 310.847 292.83 311.02L284.31 316.72C284.184 316.806 284.035 316.86 283.874 316.875C283.714 316.891 283.548 316.869 283.39 316.81C274.543 313.417 265.703 310.153 256.87 307.02C195.317 285.18 144.297 266.82 103.81 251.94C102.417 251.427 101.023 250.487 99.63 249.12C90.01 239.727 80.4167 230.303 70.85 220.85C70.7147 220.715 70.6063 220.569 70.5322 220.423C70.458 220.276 70.4198 220.132 70.42 220V213.75C70.42 213.37 70.5733 213.313 70.88 213.58C81.1866 222.36 91.4533 231.193 101.68 240.08C103.107 241.32 104.7 242.267 106.46 242.92C118.313 247.3 130.183 251.637 142.07 255.93Z"
        fill="url(#paint14_diamond_1_2)" />
    <path
        d="M98.82 258.45C99.9667 259.69 101.317 260.587 102.87 261.14L273.81 321.94C275.023 322.373 275.1 322.943 274.04 323.65L266.9 328.41C266.773 328.494 266.624 328.547 266.467 328.564C266.309 328.581 266.146 328.563 265.99 328.51C226.23 314.437 186.623 300.503 147.17 286.71C124.683 278.85 108.98 273.177 100.06 269.69C98.7733 269.183 97.3233 267.96 95.71 266.02C87.23 255.82 78.7633 245.607 70.31 235.38C70.0598 235.079 69.9197 234.763 69.92 234.5L69.93 227.75C69.93 227.357 70.0666 227.31 70.34 227.61L98.82 258.45Z"
        fill="url(#paint15_diamond_1_2)" />
    <path
        d="M256.96 334.08C257.533 334.28 257.563 334.557 257.05 334.91L249.92 339.76C249.694 339.914 249.443 340.016 249.187 340.056C248.932 340.096 248.679 340.073 248.45 339.99L96.78 286.76C95.7133 286.387 94.85 285.74 94.19 284.82C86.27 273.767 78.4767 262.63 70.81 251.41C69.85 250.01 69.3367 248.607 69.27 247.2C69.21 245.86 69.2433 244.303 69.37 242.53C69.41 241.937 69.6167 241.873 69.99 242.34C78.65 253.4 87.05 264.307 95.19 275.06C96.5367 276.847 98.28 278.113 100.42 278.86C152.507 297.113 204.687 315.52 256.96 334.08Z"
        fill="url(#paint16_diamond_1_2)" />
    <path
        d="M91.27 293.72C83.77 286.28 78.2433 279.893 74.69 274.56C70.8433 268.8 68.78 265.197 68.5 263.75C68.1267 261.837 68.1933 259.58 68.7 256.98C68.7667 256.62 68.9033 256.59 69.11 256.89C76.5233 267.857 83.7367 278.81 90.75 289.75C91.8767 291.51 93.06 292.913 94.3 293.96C95.2333 294.747 96.84 295.537 99.12 296.33C145.767 312.57 192.633 328.85 239.72 345.17C240.3 345.37 240.34 345.643 239.84 345.99L232.67 350.98C232.546 351.067 232.4 351.122 232.246 351.141C232.091 351.16 231.931 351.143 231.78 351.09C200.093 340.137 168.397 329.21 136.69 318.31C132.457 316.857 128.723 315.37 125.49 313.85C124.743 313.497 121.2 311.64 114.86 308.28C109.267 305.307 103.73 302.23 98.25 299.05C95.6633 297.55 93.3367 295.773 91.27 293.72Z"
        fill="url(#paint17_diamond_1_2)" />
    <path
        d="M173.93 340.31C173.203 339.897 173.253 339.717 174.08 339.77C175.533 339.863 177.05 340.187 178.63 340.74C193.477 345.98 208.33 351.143 223.19 356.23C223.837 356.45 223.883 356.747 223.33 357.12L216.43 361.74C216.301 361.825 216.154 361.879 215.998 361.9C215.843 361.921 215.683 361.907 215.53 361.86C212.27 360.84 207.823 358.823 202.19 355.81C192.717 350.743 183.297 345.577 173.93 340.31Z"
        fill="url(#paint18_diamond_1_2)" />
    <defs>
        <radialGradient id="paint0_diamond_1_2" cx="0" cy="0" r="1" gradientUnits="userSpaceOnUse"
            gradientTransform="translate(244.752 63.9063) rotate(9.37591) scale(54.3306 16.2498)">
            <stop offset="0.27426" stop-color="#D23CAE" />
            <stop offset="1" stop-color="#6B57FF" />
        </radialGradient>
        <radialGradient id="paint1_diamond_1_2" cx="0" cy="0" r="1" gradientUnits="userSpaceOnUse"
            gradientTransform="translate(246.616 87.3254) rotate(19.907) scale(74.8035 44.5624)">
            <stop offset="0.27426" stop-color="#D23CAE" />
            <stop offset="1" stop-color="#6B57FF" />
        </radialGradient>
        <radialGradient id="paint2_diamond_1_2" cx="0" cy="0" r="1" gradientUnits="userSpaceOnUse"
            gradientTransform="translate(244.924 105.641) rotate(23.7103) scale(92.9132 63.6533)">
            <stop offset="0.27426" stop-color="#D23CAE" />
            <stop offset="1" stop-color="#6B57FF" />
        </radialGradient>
        <radialGradient id="paint3_diamond_1_2" cx="0" cy="0" r="1" gradientUnits="userSpaceOnUse"
            gradientTransform="translate(237.168 115.3) rotate(23.2181) scale(102.872 69.3527)">
            <stop offset="0.27426" stop-color="#D23CAE" />
            <stop offset="1" stop-color="#6B57FF" />
        </radialGradient>
        <radialGradient id="paint4_diamond_1_2" cx="0" cy="0" r="1" gradientUnits="userSpaceOnUse"
            gradientTransform="translate(228.473 124.814) rotate(22.8361) scale(113.094 75.2704)">
            <stop offset="0.27426" stop-color="#D23CAE" />
            <stop offset="1" stop-color="#6B57FF" />
        </radialGradient>
        <radialGradient id="paint5_diamond_1_2" cx="0" cy="0" r="1" gradientUnits="userSpaceOnUse"
            gradientTransform="translate(219.493 134.894) rotate(22.4149) scale(123.773 81.1863)">
            <stop offset="0.27426" stop-color="#D23CAE" />
            <stop offset="1" stop-color="#6B57FF" />
        </radialGradient>
        <radialGradient id="paint6_diamond_1_2" cx="0" cy="0" r="1" gradientUnits="userSpaceOnUse"
            gradientTransform="translate(216.786 146.763) rotate(22.4538) scale(128.369 84.3159)">
            <stop offset="0.27426" stop-color="#D23CAE" />
            <stop offset="1" stop-color="#6B57FF" />
        </radialGradient>
        <radialGradient id="paint7_diamond_1_2" cx="0" cy="0" r="1" gradientUnits="userSpaceOnUse"
            gradientTransform="translate(215.181 161.068) rotate(22.0559) scale(132.033 85.5054)">
            <stop offset="0.27426" stop-color="#D23CAE" />
            <stop offset="1" stop-color="#6B57FF" />
        </radialGradient>
        <radialGradient id="paint8_diamond_1_2" cx="0" cy="0" r="1" gradientUnits="userSpaceOnUse"
            gradientTransform="translate(213.886 176.533) rotate(21.2792) scale(134.914 84.8961)">
            <stop offset="0.27426" stop-color="#D23CAE" />
            <stop offset="1" stop-color="#6B57FF" />
        </radialGradient>
        <radialGradient id="paint9_diamond_1_2" cx="0" cy="0" r="1" gradientUnits="userSpaceOnUse"
            gradientTransform="translate(212.588 193.473) rotate(20.2157) scale(137.285 82.8367)">
            <stop offset="0.27426" stop-color="#D23CAE" />
            <stop offset="1" stop-color="#6B57FF" />
        </radialGradient>
        <radialGradient id="paint10_diamond_1_2" cx="0" cy="0" r="1" gradientUnits="userSpaceOnUse"
            gradientTransform="translate(208.276 207.134) rotate(19.3098) scale(136.348 79.1774)">
            <stop offset="0.27426" stop-color="#D23CAE" />
            <stop offset="1" stop-color="#6B57FF" />
        </radialGradient>
        <radialGradient id="paint11_diamond_1_2" cx="0" cy="0" r="1" gradientUnits="userSpaceOnUse"
            gradientTransform="translate(203.499 220.576) rotate(19.8345) scale(133.313 79.1769)">
            <stop offset="0.27426" stop-color="#D23CAE" />
            <stop offset="1" stop-color="#6B57FF" />
        </radialGradient>
        <radialGradient id="paint12_diamond_1_2" cx="0" cy="0" r="1" gradientUnits="userSpaceOnUse"
            gradientTransform="translate(197.728 234.197) rotate(20.6552) scale(128.629 79.0023)">
            <stop offset="0.27426" stop-color="#D23CAE" />
            <stop offset="1" stop-color="#6B57FF" />
        </radialGradient>
        <radialGradient id="paint13_diamond_1_2" cx="0" cy="0" r="1" gradientUnits="userSpaceOnUse"
            gradientTransform="translate(188.069 247.131) rotate(21.8949) scale(120.343 77.4822)">
            <stop offset="0.27426" stop-color="#D23CAE" />
            <stop offset="1" stop-color="#6B57FF" />
        </radialGradient>
        <radialGradient id="paint14_diamond_1_2" cx="0" cy="0" r="1" gradientUnits="userSpaceOnUse"
            gradientTransform="translate(179.175 260.371) rotate(23.0703) scale(112.51 75.477)">
            <stop offset="0.27426" stop-color="#D23CAE" />
            <stop offset="1" stop-color="#6B57FF" />
        </radialGradient>
        <radialGradient id="paint15_diamond_1_2" cx="0" cy="0" r="1" gradientUnits="userSpaceOnUse"
            gradientTransform="translate(170.015 273.322) rotate(24.3439) scale(104.566 73.0747)">
            <stop offset="0.27426" stop-color="#D23CAE" />
            <stop offset="1" stop-color="#6B57FF" />
        </radialGradient>
        <radialGradient id="paint16_diamond_1_2" cx="0" cy="0" r="1" gradientUnits="userSpaceOnUse"
            gradientTransform="translate(161.182 286.527) rotate(25.5205) scale(96.9691 70.154)">
            <stop offset="0.27426" stop-color="#D23CAE" />
            <stop offset="1" stop-color="#6B57FF" />
        </radialGradient>
        <radialGradient id="paint17_diamond_1_2" cx="0" cy="0" r="1" gradientUnits="userSpaceOnUse"
            gradientTransform="translate(152.265 299.555) rotate(26.723) scale(89.5128 66.8999)">
            <stop offset="0.27426" stop-color="#D23CAE" />
            <stop offset="1" stop-color="#6B57FF" />
        </radialGradient>
        <radialGradient id="paint18_diamond_1_2" cx="0" cy="0" r="1" gradientUnits="userSpaceOnUse"
            gradientTransform="translate(197.993 349.812) rotate(21.9754) scale(25.2205 16.2856)">
            <stop offset="0.27426" stop-color="#D23CAE" />
            <stop offset="1" stop-color="#6B57FF" />
        </radialGradient>
    </defs>
</svg>